<svg xmlns="http://www.w3.org/2000/svg" width="1200" height="720" viewBox="0 0 1200 720">
  <defs>
    <marker id="arrow" markerWidth="10" markerHeight="10" refX="6" refY="3" orient="auto" markerUnits="strokeWidth">
      <path d="M0,0 L0,6 L9,3 z" fill="#1f2937" />
    </marker>
    <style>
      .box { fill: #fefce8; stroke: #1f2937; stroke-width: 1.5; rx: 6; }
      .title { font: 700 15px 'Arial', sans-serif; fill: #111827; }
      .text { font: 13px 'Arial', sans-serif; fill: #111827; }
      .link { stroke: #1f2937; stroke-width: 1.3; marker-end: url(#arrow); }
    </style>
  </defs>

  <rect class="box" x="60" y="60" width="240" height="170" />
  <text class="title" x="80" y="90">boards</text>
  <text class="text" x="80" y="115">id (PK)</text>
  <text class="text" x="80" y="135">titolo</text>
  <text class="text" x="80" y="155">descrizione</text>

  <rect class="box" x="360" y="60" width="240" height="190" />
  <text class="title" x="380" y="90">lists</text>
  <text class="text" x="380" y="115">id (PK)</text>
  <text class="text" x="380" y="135">board_id (FK)</text>
  <text class="text" x="380" y="155">titolo</text>
  <text class="text" x="380" y="175">posizione</text>

  <rect class="box" x="660" y="60" width="240" height="210" />
  <text class="title" x="680" y="90">cards</text>
  <text class="text" x="680" y="115">id (PK)</text>
  <text class="text" x="680" y="135">list_id (FK)</text>
  <text class="text" x="680" y="155">titolo</text>
  <text class="text" x="680" y="175">descrizione</text>
  <text class="text" x="680" y="195">posizione</text>

  <rect class="box" x="60" y="360" width="240" height="170" />
  <text class="title" x="80" y="390">members</text>
  <text class="text" x="80" y="415">id (PK)</text>
  <text class="text" x="80" y="435">nome</text>
  <text class="text" x="80" y="455">email</text>

  <rect class="box" x="360" y="360" width="260" height="190" />
  <text class="title" x="380" y="390">card_members</text>
  <text class="text" x="380" y="415">card_id (FK)</text>
  <text class="text" x="380" y="435">member_id (FK)</text>
  <text class="text" x="380" y="455">assigned_at</text>

  <line class="link" x1="300" y1="145" x2="360" y2="145" />
  <line class="link" x1="600" y1="165" x2="660" y2="165" />
  <line class="link" x1="780" y1="270" x2="490" y2="360" />
  <line class="link" x1="300" y1="445" x2="360" y2="445" />

  <text class="text" x="320" y="135">1..*</text>
  <text class="text" x="620" y="155">1..*</text>
  <text class="text" x="640" y="300">1..*</text>
  <text class="text" x="320" y="435">1..*</text>
</svg>
