<svg xmlns="http://www.w3.org/2000/svg" width="1200" height="640" viewBox="0 0 1200 640">
  <defs>
    <marker id="arrow" markerWidth="10" markerHeight="10" refX="6" refY="3" orient="auto" markerUnits="strokeWidth">
      <path d="M0,0 L0,6 L9,3 z" fill="#1f2937" />
    </marker>
    <style>
      .actor { font: 700 14px 'Arial', sans-serif; fill: #111827; }
      .text { font: 13px 'Arial', sans-serif; fill: #111827; }
      .arrow { stroke: #1f2937; stroke-width: 1.4; marker-end: url(#arrow); }
      .lifeline { stroke: #94a3b8; stroke-width: 1; stroke-dasharray: 4 4; }
    </style>
  </defs>

  <text class="actor" x="60" y="40">Utente</text>
  <text class="actor" x="260" y="40">View</text>
  <text class="actor" x="480" y="40">Presenter</text>
  <text class="actor" x="720" y="40">ApiClient</text>
  <text class="actor" x="950" y="40">Backend</text>

  <line class="lifeline" x1="80" y1="60" x2="80" y2="600" />
  <line class="lifeline" x1="300" y1="60" x2="300" y2="600" />
  <line class="lifeline" x1="520" y1="60" x2="520" y2="600" />
  <line class="lifeline" x1="760" y1="60" x2="760" y2="600" />
  <line class="lifeline" x1="980" y1="60" x2="980" y2="600" />

  <line class="arrow" x1="80" y1="120" x2="300" y2="120" />
  <text class="text" x="100" y="110">drag &amp; drop card</text>

  <line class="arrow" x1="300" y1="170" x2="520" y2="170" />
  <text class="text" x="320" y="160">onDrop(cardId, targetList)</text>

  <line class="arrow" x1="520" y1="220" x2="560" y2="220" />
  <text class="text" x="540" y="235">model.moveCard()</text>

  <line class="arrow" x1="520" y1="270" x2="300" y2="270" />
  <text class="text" x="320" y="260">view.renderBoard()</text>

  <line class="arrow" x1="520" y1="330" x2="760" y2="330" />
  <text class="text" x="540" y="320">updateCard(list_id, posizione)</text>

  <line class="arrow" x1="760" y1="380" x2="980" y2="380" />
  <text class="text" x="780" y="370">PUT /api/cards/{id}</text>

  <line class="arrow" x1="980" y1="430" x2="760" y2="430" />
  <text class="text" x="790" y="420">200 OK</text>

  <line class="arrow" x1="760" y1="480" x2="520" y2="480" />
  <text class="text" x="540" y="470">confirm update</text>

  <line class="arrow" x1="300" y1="540" x2="80" y2="540" />
  <text class="text" x="100" y="530">card persistita</text>
</svg>
